<?xml version="1.0" encoding="UTF-8"?>
<svg id="Layer_1" data-name="Layer 1" xmlns="http://www.w3.org/2000/svg" viewBox="0 0 493.04 359.05">
  <path d="M58.31,296.4l-1.24.36c-12.22,3.59-19.72,14.24-18.65,26.49.93,10.6,8.69,22.06,23.94,23.77l.5.06h367.14l.5-.06c16.44-1.85,23.94-14.81,23.95-26.08.01-13.08-9.01-23.24-21.95-24.72l-.51-.06-373.69.23Z"/>
  <path d="M282.32,283.25h140.46l-.79-9.73c-5.82-71.99-58.61-135.15-128.38-153.59l-11.3-2.99v166.3Z"/>
  <rect x="222.46" y="113.65" width="47.93" height="169.6"/>
  <path d="M199.23,119.94c-69.73,18.47-122.52,81.62-128.38,153.59l-.79,9.73h140.47V116.94l-11.3,2.99Z"/>
  <path d="M448.95,97.48c-13.42,21.34-33.04,39.43-58.32,53.76l-9.2,5.21,6.62,8.25c13.45,16.76,22.77,31.2,29.31,45.44l1.46,3.17,18-3.58c25.99-28.25,44.08-76.45,44.07-117.51,0-2.48-.35-4.93-.7-7.31-.4-2.79-.81-5.66-.47-7.46l.64-3.37-15.77-5.6-15.63,28.99Z"/>
  <path d="M13,75.06c-3.51,43.93,8.25,87.44,33.14,122.52,1.65,2.33,3.42,4.47,5.13,6.54,2.25,2.72,4.37,5.28,5.81,7.79l3.97,6.9,12.99-5.49,1.46-3.18c8.19-17.88,19.98-33.69,29.34-45.47l6.54-8.24-9.15-5.19c-25.28-14.33-44.91-32.42-58.32-53.76L15.43,44.69l-2.43,30.38Z"/>
</svg>