<?xml version="1.0" encoding="UTF-8"?>
<svg id="Layer_1" data-name="Layer 1" xmlns="http://www.w3.org/2000/svg" viewBox="0 0 493.75 497.27">
  <path d="M48,451.36c25.77,22.79,58.2,34.84,93.79,34.84,39.46,0,79.11-15.44,108.78-42.35,28.46-25.81,53.46-63.02,70.41-104.78,17.21-42.42,24.79-86.55,21.34-124.27-1-10.95-3.3-21.81-5.52-32.31l-2.89-13.72-16.33,52.28c-20.88,50.7-49.35,98.34-82.34,137.78-51.1,61.1-101.45,90.8-153.9,90.8-10.14,0-20.47-1.16-30.71-3.44l-2.64,5.18Z"/>
  <polygon points="288.31 127.15 324.95 134.02 430.7 10.97 404.46 10.97 288.31 127.15"/>
  <polygon points="423.59 36.91 462.67 83.83 484.33 83.83 443.09 14.92 423.59 36.91"/>
  <path d="M321.29,146.74l-.05-2.48-43.39-7.3-.73.25c-40.38,14.1-80.05,35.74-117.92,64.31-34.79,26.25-67.27,57.71-96.54,93.5-28.71,35.1-60.25,79.42-49.23,110.85,5.22,14.88,19.6,24.93,42.73,29.87,8.32,1.78,16.8,2.68,25.22,2.68h.01c39.31,0,79.16-19.19,118.45-57.05,36.57-35.24,63.92-78.07,80.44-107.8,20.8-37.46,41.94-81.82,41.01-126.84ZM239.6,244.31c-4.19,16.89-20.81,35.14-34.44,43.03-9.01,5.21-19.14,8.33-27.1,8.33-6.69,0-11.92-2.09-15.57-6.23-6.06-6.86-7.23-15.6-3.49-25.99,8.05-22.37,36.34-44.91,53.84-47.68,1.53-.24,3.11-.36,4.71-.36,6.77,0,15.49,2.38,19.67,9.04,3.47,5.55,4.28,12.23,2.38,19.86Z"/>
  <path d="M218.86,226.48c-1.21,0-2.54.11-3.96.33-12.39,1.93-28.87,15.02-35.52,23.32-2.43,3.04-14.09,20.32-10.84,29.21.68,1.87,2.3,4.25,6.12,5,1.33.26,2.74.39,4.17.39,18.3,0,41.01-21.29,47.39-35.65,3.78-8.5,4.37-14.54,1.82-18.46-1.79-2.75-4.88-4.15-9.18-4.15Z"/>
  <path d="M150.94,379.5c-.83,0-1.7-.13-2.6-.39l-83.33-25.11c-2.43-1.2-3.07-3.71-2.84-5.68.23-2.01,1.43-4.34,4.12-4.89.32-.07.59-.1.85-.1.43,0,.87.09,1.52.22.24.05.5.1.78.15,13.8,2.53,28.88,7.83,43.46,12.95,13.42,4.71,27.28,9.58,40.39,12.41,2.76,1.48,4.06,3.78,3.49,6.21-.49,2.1-2.49,4.23-5.84,4.23Z"/>
</svg>