<?xml version="1.0" encoding="UTF-8"?>
<svg id="Layer_1" data-name="Layer 1" xmlns="http://www.w3.org/2000/svg" viewBox="0 0 413.17 538.4">
  <path d="M38.79,376.11c-.82,4.72-6.24,10.69-11.48,16.47-3.6,3.97-7,7.72-9.47,11.63l-3.48,5.52,114.22,109.55v-200.42l-7.29-.65s-.31-.06-1.18-.56c-5.01-2.92-10.3-5.85-15.41-8.68-9.65-5.35-19.62-10.87-28.06-16.49-6.18-4.11-6.88-4.74-7.34-9.99-1.36-15.41-1.59-48.86.02-63.27.22-2,1.23-6.66,5.65-6.66,1.46,0,3.12.51,4.78,1.47,15.71,9.92,32.47,19.17,48.68,28.12,15.55,8.58,31.59,17.43,46.73,26.91,1.08.68,2.12,1.29,3.1,1.88,5.56,3.31,6.57,3.9,6.99,8.44,1.06,11.28.56,23.92.07,36.15-.46,11.61-.94,23.62-.15,35l.27,3.83,21.62,14.98,20.66-15.11.26-3.71c.79-11.37.31-23.37-.14-34.97-.48-12.25-.99-24.91.07-36.18.35-3.72.84-4.39,3.69-6.51,17.04-8.42,33.89-18.92,50.17-29.09,16.52-10.31,33.59-20.96,50.39-29.08,2.45-1.18,4.77-1.81,6.72-1.81,1.74,0,4.13,0,4.88,5.49,1.86,13.69,1.38,49.64.1,64.1-.39,4.44-1.49,6.31-5.33,9.08-7.6,5.5-18.58,11.4-29.2,17.1-5.87,3.15-11.37,6.1-16.29,8.97-.87.51-1.18.56-1.2.57l-7.27.65v200.31l111.42-105.92.45-2.62c.86-5.04-2.23-8.57-9.69-17.1-9.67-11.06-11.85-14.78-12.33-15.8l.07-.35-.11-1.19c-2.33-26.07-1.15-54.34,0-81.69,3.3-79.16,6.72-161-69.62-212.37-11.06-7.44-37.52-21.57-51.53-22.15-.43-.02-.77-.02-1.05-.02-2.96,0-5.31,1.01-6.99,3.01-1.35,1.6-2,3.57-1.91,5.7-2.83,11.38-3.75,24.21-4.64,36.63-.86,12.04-1.75,24.48-4.38,34.71-1.25,4.86-1.82,5.51-8.78,6.11-4.65.4-11.54.63-18.9.63s-14.26-.23-18.91-.63c-7.77-.67-8.1-2.51-8.66-5.55l-10.89-82.14-8.4,1.71c-63.39,12.89-116.5,74.26-120.91,139.71-2.02,30.04-1.11,61.53-.23,92,.81,27.98,1.65,56.89.19,84.26Z"/>
  <path d="M202.41,13.97c-.6.31-2.69,1.16-4.37,1.84-12.54,5.08-21.59,8.74-21.74,16.73v.6s13.33,100.85,13.33,100.85h33.9l13.95-106.88-31.55-14.99-3.53,1.84Z"/>
</svg>