<?xml version="1.0" encoding="UTF-8"?>
<svg id="Layer_1" data-name="Layer 1" xmlns="http://www.w3.org/2000/svg" viewBox="0 0 411.34 563.09">
  <path d="M200.39,20.52c-.4,0-.84.06-1.34.18l-.92.22-.41.85c-14.35,29.5-38.45,53.12-71.61,70.19-28.74,14.79-63.02,23.84-99.13,26.16l-2.74.18,1,2.55c21.14,53.69,19.97,106.94-3.22,146.11l-2.58,4.36,40.8-11.93-.3-1.76c-7.33-42.51,4.53-85.95,32.53-119.2,28.48-33.8,69.81-53.19,113.4-53.19,6.11,0,12.31.39,18.44,1.15,38.54,4.78,74.51,25.65,98.67,57.25,24.17,31.6,34.48,70.09,29.03,108.39l-.27,1.87,39.27,7.86-2.67-5.85c-4.69-10.23-9.54-20.81-11.69-31.97-5.31-27.6-2.23-54.76,9.69-85.47,1.97-5.08,4.47-10.15,6.88-15.06l1.91-3.88-2.89-.27c-35.6-3.28-68.44-11.59-97.59-24.7-31.39-14.11-58.57-33.85-80.79-58.66-1.5-1.67-3.07-3.96-4.59-6.17-1.83-2.66-3.72-5.42-5.62-7.3-.15-.14-.26-.28-.37-.41-.48-.56-1.28-1.49-2.88-1.49Z"/>
  <path d="M196.44,514.92c-.25,1.52-1.34,2.83-2.71,4.48-2.31,2.77-5.18,6.22-5.18,12.41,0,6.08,2.31,11.3,6.69,15.11,3.87,3.36,9.16,5.29,14.51,5.29h0c8.59,0,15.7-4.61,19.01-12.34,4.27-9.99.65-15.29-2.55-19.97-1.6-2.34-3.12-4.56-3.47-7.24l.09-211.39c.67-3.42,6.41-6.08,11.48-8.44,3.07-1.43,5.98-2.78,8.16-4.38,20.25-14.9,28.21-40.17,20.26-64.38-7.96-24.25-28.98-39.92-53.55-39.92-2.23,0-4.52.13-6.79.38-24.47,2.7-43.93,20.11-49.56,44.34-5.6,24.1,4.07,48.13,24.64,61.22,1.76,1.12,4.51,2.31,7.42,3.56,3.54,1.53,10.81,4.67,11.47,6.53l.08,214.74Z"/>
  <path d="M306.48,290.19c-1.47,0-3.11-.17-4.84-.35-1.48-.15-3.01-.31-4.49-.36-1.04-.04-2.65-.06-4.6-.09-5.84-.09-21.34-.31-23.54-1.7-1.62-1.03-2.2-4.06-1.62-5.99.5-1.65,3.31-2.52,8.13-2.52,3.14,0,6.6.36,9.66.68,2.39.25,4.46.46,5.97.46.25,0,.48,0,.7-.02l1.26-.07.32-1.22c.59-2.25-.64-3.36-1.3-3.96-.18-.16-.34-.31-.44-.44-1.14-1.5-3.23-3.8-5.44-6.22-3.44-3.77-8.14-8.92-8.84-10.85-.65-1.8-.53-3.48.34-4.73.82-1.17,2.24-1.84,3.9-1.84.68,0,1.4.11,2.13.33,2.1.64,9.66,10.25,14.66,16.61,4.79,6.09,9.33,11.86,12.05,14.2,1.17,4.22.73,6.06.13,6.85-.62.83-1.94,1.22-4.15,1.22Z"/>
  <path d="M107.76,289.51c-1.1-.1-2.22-.78-3.1-1.88-.9-1.13-1.38-2.52-1.3-3.73,2.99-3.56,5.96-7.35,8.83-11.03,4.89-6.25,9.94-12.72,15.35-18.36.44-.45.84-.9,1.23-1.33,1.8-1.98,2.81-3.02,4.33-3.02.68,0,1.51.21,2.45.63,2.33,1.03,2.57,2.19,2.65,2.57.73,3.64-5.43,10.15-9.94,14.9-3.26,3.45-6.09,6.42-6.97,8.7l-.69,1.78,1.84.52c.98.27,2.18.41,3.68.41,2.01,0,4.29-.23,6.7-.48,2.47-.25,5.03-.51,7.32-.51,6.36,0,7.26,2.08,7.29,4.33.06,4.01-2.64,4.93-8.69,5.48-3.49.32-7.2.36-10.37.36-1.12,0-2.24,0-3.36-.01-1.13,0-2.27-.01-3.41-.01-4.47,0-9.24.08-13.85.69Z"/>
  <path d="M220.46,175.81c-1.44,0-2.81-.58-3.85-1.65-1.81-1.85-3.9-8.45-5.57-13.75-1.11-3.51-2.16-6.83-3.11-8.82l-1.51-3.13-13.35,25.89c-1.01.39-1.93.58-2.75.59h0c-1.12,0-1.97-.37-2.55-1.09-.92-1.15-1.12-3.19-.57-5.59,1.26-5.43,10.88-26.14,14.03-31.97,1.8-3.32,3.37-4.8,5.12-4.8,1.08,0,2.38.54,3.89,1.62l14.68,37c.36,1.56.13,2.94-.69,3.98-.84,1.08-2.24,1.72-3.76,1.72Z"/>
  <path d="M147.41,195.09c-1.6,0-3.13-.84-3.81-2.08-1.22-2.49-6.19-32.54-6.27-36.5-.04-1.96.58-3.74,1.7-4.88.78-.8,1.73-1.2,2.8-1.2.66,0,1.36.16,2.09.47l30.87,21.49c1.3,1.59,1.66,3.53.95,5.09-.68,1.49-2.21,2.34-4.19,2.34-.16,0-.31,0-.48-.02-1.78-.11-7.81-4.12-11.8-6.78-5.56-3.7-7.63-4.99-8.98-4.99-.63,0-1.06.25-1.31.46l-.74.62.13.95c.19,1.33.54,3.06.94,5.05,1.21,5.97,3.25,15.97.87,18.79-.87,1.03-2.11,1.19-2.77,1.19Z"/>
  <path d="M264.93,196.16c-1.18,0-2.15-.52-2.88-1.55-1.9-2.67.23-13.06,1.38-18.64.4-1.96.75-3.66.94-4.92l.14-.95-.73-.62c-.36-.3-.8-.46-1.29-.46-1.39,0-3.49,1.42-10.51,6.65-3.26,2.43-8.19,6.11-9.34,6.41-.38.1-.76.15-1.14.15h0c-1.71,0-3.24-1.02-3.9-2.6-.76-1.81-.19-3.87,1.56-5.64,3.66-3.71,22.65-17.08,27.9-19.9,1.9-1.02,3.51-1.54,4.78-1.54.9,0,1.57.26,2.1.81,1.12,1.17,1.66,3.72,1.52,7.17-.24,5.71-3.24,26.02-5.02,31.32-.81,2.44-3.24,4.34-5.51,4.34Z"/>
  <path d="M282.61,239.78c-1.84,0-3.36-.91-4.07-2.43-.82-1.78-.35-3.92,1.3-5.87,1.33-1.58,3.81-3.3,6.21-4.96,2.14-1.49,4.36-3.03,5.9-4.56.13-.13.25-.23.35-.32.85-.73,1.63-1.61,1.14-3.66l-.21-.87-.83-.33c-1.1-.44-2.98-1.03-5.16-1.7-3.76-1.17-11.58-3.6-12.58-4.91-1.09-1.53-1.27-3.39-.47-4.97.82-1.63,2.5-2.62,4.48-2.65,2.32.03,24.14,7.49,27.46,9.39,1.93,1.1,3.07,2.32,3.39,3.62.3,1.21-.07,2.7-1.1,4.41-3.32,1.97-7.07,5.57-11.02,9.38-4.43,4.27-9.02,8.68-12.35,9.97-.83.32-1.65.49-2.44.49Z"/>
  <path d="M132.62,239.09c-.13,0-.26,0-.39-.01-2.25-.13-9.44-6.37-14.2-10.49-4.32-3.74-8.4-7.29-11.03-8.7-2.16-2.42-1.79-3.8-1.66-4.26,1.19-4.42,12.67-7.88,20.27-10.16,4.54-1.37,8.19-2.46,10.27-3.68.14-.01.28-.02.42-.02,2.76,0,4.54,2.03,5.02,3.91.26,1,.53,3.5-2.47,5.14-.65.36-3.44,1.28-5.91,2.09-10.52,3.47-11.83,4.15-11.75,6.03l.03.62.42.46c1.25,1.39,3.64,3.15,6.4,5.19,3.12,2.3,7.82,5.78,8.33,7.25.66,1.93.51,3.83-.39,5.09-.72,1.01-1.88,1.54-3.36,1.54Z"/>
</svg>