<?xml version="1.0" encoding="UTF-8"?>
<svg id="Layer_1" data-name="Layer 1" xmlns="http://www.w3.org/2000/svg" viewBox="0 0 523.72 524.81">
  <path d="M240.53,511.54h42.54v-83.68l-4,1.41c-5.44,1.91-10.7,2.84-16.1,2.84s-11.17-.9-18.66-2.91l-3.78-1.02v83.35Z"/>
  <path d="M113.36,140.03c-2.82,0-5.2.15-7.28.45l-2.57.38v100.97l.42.71c1.86,3.11,5.93,8.03,10.65,13.73,6.31,7.61,15.83,19.12,16.33,22.87.73,5.48-8.21,10.65-15.4,14.8-3.87,2.23-7.52,4.34-9.92,6.55l-1.27,1.17,31.63,144.29,1.78.46c.55.14,1.06.21,1.56.21,2.2,0,3.4-1.31,4.04-2.02.16-.17.31-.34.41-.42,6.68-5.13,13.39-12.73,19.88-20.08,6.83-7.73,13.88-15.73,20.53-20.34l.3-.21c1.51-1.06,2.27-1.55,3.37-1.6l74.46,17.8,91.09-17.7,58.28,24.09,8.19-81.3-18.07-65.31c.57-3.38,6.28-8.56,10.49-12.38,2.87-2.6,5.59-5.07,7.22-7.26l.59-.8v-118.65h-42.31c-1.01-.4-3.24-3.91-4.18-7.06l-.64-2.14h-74.31l-.38.1c-2.08.56-2.58,2.5-2.91,3.79-.59,2.28-1.25,4.86-6.93,5.38-6.27.57-18.75.97-30.35.97s-20.46-.38-24.85-1.06c-3.28-.51-4.17-2.64-4.98-5.37-.42-1.41-.95-3.17-2.88-3.69l-.39-.1h-72.49l-.39.11c-1.71.47-2.23,1.93-2.78,3.47-.65,1.83-1.86,5.23-4.03,5.69-2.01.43-4.54.64-7.72.64-3.68,0-7.83-.28-11.85-.55-4.14-.28-8.42-.57-12.35-.57Z"/>
  <rect x="386.68" y="85.68" width="42.54" height="42.51"/>
  <path d="M240.53,128.19h42.54v-27.48l-3.8,1.05c-5.65,1.56-11.53,2.35-17.47,2.35-5.94,0-11.82-.79-17.47-2.35l-3.8-1.05v27.48Z"/>
  <rect x="94.38" y="85.68" width="42.54" height="42.51"/>
  <path d="M441.49,96.12v31.45l3.47-.55c21.09-3.33,40.09-13.92,52.13-29.04l4.17-5.24-59.77,3.38Z"/>
  <path d="M30.9,92.66c-1.42,0-3.03.09-4.12,1.2-.61.63-.94,1.45-.92,2.32l.02,1.01.63.79c12.04,15.12,31.04,25.7,52.13,29.04l3.47.55v-37.81l-5.13,5.93c-.33.14-1.64.56-5.59.56-6.65,0-16.47-1.14-25.13-2.15-6.6-.77-12.3-1.43-15.37-1.43Z"/>
  <rect x="295.34" y="94.81" width="79.08" height="24.25"/>
  <rect x="149.19" y="94.81" width="79.07" height="24.25"/>
  <path d="M261.76,12.83c-21.21,0-38.66,9.81-45.53,25.59-4.86,11.16-4.08,22.17,2.25,31.84,8.43,12.86,25.79,21.51,43.2,21.51.25,0,.5,0,.75,0,20.16-.3,39.53-12.34,46.05-28.62,5.05-12.61,1.65-25.63-9.58-36.66-8.83-8.67-22.36-13.64-37.14-13.64Z"/>
  <path d="M306.34,368.82c-1.31,0-2.45-.48-3.36-1.43-1.54-1.59-2.33-4.31-2.22-7.67.41-12.67,2.78-26.63,5.07-40.14,1.84-10.85,3.74-22.05,4.62-32.57,8.15-13.09,15.08-28.91,21.78-44.21,7.29-16.65,14.84-33.86,23.8-47.13,1.48-2.2,2.13-3.07,3.78-3.43.68-.15,1.35-.22,1.99-.22,3.18,0,5.37,1.76,6.04,4.84l-.17,103.27-54.86,65.5c-2.17,2.06-4.46,3.19-6.47,3.19ZM322.9,289.74l-6.43,51.44,39.17-45.44v-57.59l-5.67-1.37-27.06,52.96Z"/>
  <path d="M169.76,259.17c-1.77,0-3.35-.69-4.46-1.93-1.22-1.37-1.77-3.32-1.54-5.49l10.3-57.44c.66-.89,1.68-1.41,3.3-2.19.39-.19.78-.38,1.17-.57,7.01-3.58,38.59-16.66,44.11-17.51.65-.1,1.29-.15,1.91-.15,2.4,0,5.41.71,6.17,4.11,1.21,5.38.92,30.09.24,37.68-.03.32-.05.63-.07.95-.09,1.25-.17,2.08-.48,2.73l-57.64,39.2c-1.01.41-2.02.62-3,.62ZM185.01,202.91l-6.74,36.43,40.35-26.39v-23.77l-33.61,13.73Z"/>
</svg>