<?xml version="1.0" encoding="UTF-8"?>
<svg id="Layer_1" data-name="Layer 1" xmlns="http://www.w3.org/2000/svg" viewBox="0 0 466.74 555.25">
  <path d="M278.57,71.16c-.52-8.41-4.19-57.09-3.25-64.57.42-3.34,1.99-4.16,3.7-6.59h4.83c22.42,17.89,41.45,43.69,50.12,71.29,4.28,13.63,6.37,38.43,11.2,49.21,1.44,3.22,8.37,9.49,10.95,13.21,13.85,19.99,23.86,38.08,20.42,63.52-2.72,20.12-41.3,58.18-61.84,58.97-15.02.58-52.21-16.26-59.87-29.62-7.76-13.55-5.41-48.09,4.25-60.33,0,0,22.69-43.12,19.48-95.09Z"/>
  <path d="M414.72,437.59c-8.16-36.85-41.46-39.78-62.63-65.42-10.29-12.47-16.37-29.2-26.18-42.69-2.37-3.26-12.73-13.93-12.73-13.93-.43-3.14-42.88-32.74-45.53-34.12-11.56-6-34.05-6.9-46.84-5.59-51.77,5.28-74.6,45.85-99.02,84.59-17.53,27.81-31.38,27.16-52.27,45.58-44.54,39.28-9.72,162.76,62.21,148.02,52.84-10.83,80.17-25.02,137.9-16,26.49,4.14,67.45,21.74,91.34,15.76,40.73-10.18,61.84-79.72,53.75-116.21ZM308.66,438.55c-1.33,3.29-12.43,13.9-15.71,17-9.68,9.16-22.48,19.27-33.38,27.02-3.19,2.27-15.81,11.78-18.29,11.44-3.98-.55-24.89-14.43-29.55-17.69-20.9-14.62-41.61-33.08-55.36-54.7,15.21-30.28,36.9-60.11,61.63-83.34,2.67-2.5,14.17-13.03,16.42-13.88,3.68-1.39,12.23,4.82,15.78,7.11,7.54,4.87,15.12,11.42,21.58,17.67-8.83-.7-29.61-10.5-36.92-6.11-2.59,1.55-17.51,24.74-20.34,29.18-8.54,13.39-16.39,27.54-23.62,41.7-1.03,8.7,13.48,23.76,19.87,29.52,4.85,4.38,26.14,19.96,31.55,20.5,7.81.78,25.42-17.87,29.98-24.25,3.66-5.14,7.41-8.42,4.15-14.84-1.13-2.22-11.32-15.02-13.13-15.85-8.73-4.01-21.67,11.57-24.84-1.84-.86-3.65,3.59-7.91,6.12-10.89,4.17-4.92,9.57-9.19,14.69-13.08,17.9,10.15,36.95,30.12,46.82,48.24,1.14,2.1,3.54,4.67,2.56,7.09Z"/>
  <path d="M186.92,3.8c11.69-2.32,5.49,13.54,5.17,18.57-1.28,20.05,4.91,64.47,17.05,80.77,5.39,7.23,18.2,14.92,23.79,23.32,9.35,14.07-1.78,26.81-5.49,41.22-3.81,14.77-4.61,29.11-3.95,44.35.19,4.32,2.44,10.42,2.39,14.52-.09,8.58-7.39,17.43-15.62,19.41-10.62,2.55-37.95,3.98-48.14.89-11.78-3.56-36.79-23.92-44.96-33.56-32.03-37.84,3.29-73.79,25.13-105.41l1.62-34.63c2.33-18.39,10.04-35.34,21.62-49.66,3.1-3.83,17.47-19.02,21.39-19.8Z"/>
  <path d="M189.65,90.62c-6.12-20.11-11.09-40.4-11.46-61.61-17.02,17.36-23.57,41.24-22.34,65.24,10.86-5.31,21.95-6.21,33.81-3.62Z"/>
  <path d="M45.63,119.91c2.89,2.86.28,7.75.24,11.14-.27,21.95,2.66,46.47,14.32,65.53,7.83,12.8,10.55,9.76,22.03,15.42,14.76,7.27,49.81,43.3,54.89,58.67,2.54,7.69,1.71,15.18-1.59,22.56-5.4,12.11-37.06,43.3-49.27,48.59-16.98,7.36-34.36-4.92-47.95-14.59-19.78-14.07-27.82-20.46-26.18-46.28.41-6.48,5-22.2,4.48-26.46-.23-1.92-9.76-19.32-11.45-24.59-9.71-30.19-5.77-68.01,12.5-94.45,4.25-6.15,20.03-23.39,27.98-15.53Z"/>
  <path d="M33.85,156.47c-.61-6.36.44-13.48,0-19.94-23.7,26.44-27.27,66.89-13.27,99.08,1.5,1.18,6.04-13.65,6.98-15.36,4.27-7.76,14.04-14.8,23.2-14.86-8.4-14.56-15.3-31.99-16.91-48.92Z"/>
  <path d="M403,127.17c11.17-1.19,36.96,29.06,41.52,38.95,6.94,15.07,3.77,28.08,7.52,42.02.78,2.92,5.9,8.1,7.56,11.77,6.94,15.31,7.92,40.77,6.69,57.44-2.88,39.19-59.75,100.03-94.05,55.33-8.1-10.55-23.42-41.23-23.25-54.16.32-24.5,32.86-43.14,45.68-61.95,4.44-22.55,4.52-45.65,3.99-68.6-.13-5.74-5.06-19.79,4.35-20.79Z"/>
  <path d="M438.45,200.57c.47-22.32-9.07-42.36-27.76-54.37,2.39,18.94.58,37.9-1.21,56.78,9.65-3.67,18.71-4.99,28.97-2.42Z"/>
</svg>