<?xml version="1.0" encoding="UTF-8"?>
<svg id="Layer_1" xmlns="http://www.w3.org/2000/svg" version="1.1" viewBox="0 0 595.3 586.9">
  <!-- Generator: Adobe Illustrator 29.6.1, SVG Export Plug-In . SVG Version: 2.1.1 Build 9)  -->
  <path d="M155.6,51c8,1.8,8.5,9.9,13.5,14s12.6,4.6,11.5,15.5c-.9,9-8.4,8.9-12.7,12.8s-3.8,13.2-14.8,13.2-10.2-8.7-14.7-13.2-12.5-3-12.8-13.7,6.9-10.1,12.1-14.9,5.1-11.8,12.9-13.5h5ZM167.6,79.9c1.4-2.1-6.7-5.1-8.5-6.9-2.6-2.5-3.5-6.4-6-9-4.3,6.4-6.9,12.4-15.5,14,6.6,5,11.8,8,15.5,15.9,3.6-6.5,6.9-11.7,14.5-14Z"/>
  <path d="M302.1,79.2c142.9-9.8,200.3,115.9,193.8,240.8-5.9,113.8-107.4,253.6-234.2,198.2C87.9,442.3,95.1,93.4,302.1,79.2ZM305.1,91.2c-150.2,9.7-183.4,205.3-131.4,318.4,49.7,108,165.8,151.7,252.8,53.5,103-116.2,70-384.3-121.5-372Z"/>
  <path d="M458.3,486.4c3.5-3.8,11.6-5.6,14.3-8.6,4.7-5.3,4.8-15.3,15-17.4,16.9-3.6,16.2,10.9,23.7,17.7s20.6,6.9,17.2,23.2c-2,9.9-13.8,11-18.2,15.7s-4.9,15.9-16.3,17.7-15.3-11.6-22.3-18.2c-2.3-2.2-8.1-4-10.9-6.1-8-5.9-9.7-16.5-2.7-24ZM490.6,472.2c-2.5.7-6.9,11.6-9.6,14.4s-15.2,7.5-14.9,10.8,10.9,7.2,14.4,10.6,7.9,15.6,11.8,14.9c4.9-3.6,5.6-10.2,9.6-14.4s15.1-7.9,15-10.9-11.4-7.5-14.5-10.5-7.3-16-11.8-14.9Z"/>
  <path d="M116.3,116.2c3,3.2,5.2,10.6,7.6,13.3,4.9,5.5,15,4.2,18,15.4,4.4,16.6-11.8,16.9-18.3,24.3-6,6.8-6,18.7-20.3,17.4-12.2-1.1-12.5-13.8-17.9-18.6-5.2-4.6-15-5-17.2-14.2-4.4-18.2,10.3-16.7,17.6-24.5s4.6-11.6,10.6-15.3,15-3,19.9,2.2ZM129.4,151.5c4.5-5-11-10.2-14.2-13.6s-7.5-18-12.9-13-4.4,9.8-8.9,14-8.6,4.5-11.9,7.1c-6.8,5.2,9.1,10.3,12.4,13.3s7.2,14.8,11.4,15.1,6.2-9,8-11.5c4.9-6.8,12.7-7.5,16.1-11.3Z"/>
  <path d="M234.2,251.8c29.4-3,68.1,15.3,60.8,49.9s-79.1,46.3-100.4,12.1c-18.6-30,9.6-58.8,39.5-61.9ZM236.2,263.8c-20.5,2.2-44,19.7-31.9,42.3s84.2,21.4,78.9-16.1c-2.8-19.8-29.9-28-47-26.2Z"/>
  <path d="M383.9,251.8c25.6-2.9,59.4,10.1,62.1,39.1,4.5,50-84,62.9-103.6,17.8-12.7-29.3,14-53.8,41.5-57ZM386.9,263.8c-20.6,2-44.6,19.2-32.5,41.9,13.7,25.9,68.3,24.7,77.9-3.5,9.1-26.8-23.7-40.5-45.4-38.4Z"/>
  <path d="M301.1,392.5c8.8-.9,11.1,3.1,15.8,3.5s9.2-4.2,15.8-3.8c10.6.8,34.7,15.3,41.8,23.1,14.1,15.4-14.1,32.4-26.4,37.3-25.2,10-55.7,6.9-77.7-9.1-10.9-7.9-20.7-17.8-8.1-29.9,7.7-7.3,28.2-20.1,38.7-21.2ZM303.9,404.6c-11.3.1-26.6,13.4-35.4,20.1,23.4,28.7,73.1,28.4,97.5.9.4-2-12.7-11-15.2-12.6-5.2-3.2-14.9-9.1-21-8.5s-7.5,4.1-13.2,3.9-8-3.8-12.8-3.7Z"/>
  <path d="M295.8,341.8c3.8,0,12.1,8.9,20.1,9.5,11.5.8,17.8-9.3,23-9.7s8.5,6.5,4.2,11.2c-12,13.3-41.1,14.2-51.8-.9s-1.1-10.1,4.5-10Z"/>
  <path d="M300,417.4c4.4-1,28.8-.9,33.7-.2s6.9,3.6,6.4,7.2c-1,3.7-3.8,5.1-7.4,5.6s-32.1.7-35.3-1.4-2.8-10,2.7-11.2Z"/>
</svg>