<?xml version="1.0" encoding="UTF-8"?>
<svg id="Layer_1" data-name="Layer 1" xmlns="http://www.w3.org/2000/svg" viewBox="0 0 511.27 511.27">
  <path d="M273.28.27l30.13,4.29c95.66,18.35,174.77,92.7,199.23,186.92l8.06,46.33c-.55,11.79.75,24.22,0,35.93-13.46,210.62-269.81,314.47-427.49,170.69C-82.49,293.34,16.35,13.92,237.37.27h35.91ZM249.13,51.46C97.78,55.92,2.94,220.82,76.58,354.25c77.53,140.49,280.04,140.63,357.48,0,76.13-138.26-27.88-307.41-184.93-302.79Z"/>
  <path d="M248.13,102.36c109.07-5.7,189.63,105.26,150.59,207.55-44.13,115.65-201.42,135.02-270.5,31.6-66.67-99.8,1.14-232.94,119.91-239.15ZM244.15,154.27c-70.04,6.25-111.41,84.65-79.99,147.29,36.05,71.86,138.86,75.45,179.12,5.78,42.43-73.42-15.62-160.53-99.13-153.07Z"/>
  <path d="M247.1,205.13c71.8-9.14,78.5,94.77,15.58,101.42-70.81,7.49-77.42-93.55-15.58-101.42Z"/>
</svg>