<?xml version="1.0" encoding="UTF-8"?>
<svg id="Layer_1" data-name="Layer 1" xmlns="http://www.w3.org/2000/svg" viewBox="0 0 476.6 475.11">
  <path d="M288.37,194.3c.44-8.81.89-17.92.19-26.04.87-4.05,4.17-6.53,9.82-7.35,3.57-.52,6.66-.77,9.45-.77,10.75,0,16.48,3.67,17.5,11.22,1.24,9.12.99,48.15-1.16,55.08-2.3,7.43-9.17,12.24-17.5,12.24s-16.68-4.6-18.1-14.87c-1.23-8.92-.71-19.39-.21-29.5Z"/>
  <path d="M51.65,213.16c1.17-2.9,1.97-7.92,2.75-12.78.56-3.5,1.14-7.12,1.83-9.75,6.08-23.22,17.13-45.81,32-65.4.87-1.36.81-2.78.68-3.99-.33-3.23-14.61-17.09-38.09-39.54-12.93-12.37-25.15-24.05-28.03-27.88l-.35-.47,29.91-29.91,91.23,90.95c.14.17.22.28.27.35-.07.08-.18.17-.27.25-.18.16-.37.33-.55.53-1.13,1.22-3.05,2.6-4.9,3.94-1.61,1.16-3.28,2.36-4.51,3.51-38.74,36.21-57.32,87.14-49.85,136.47H11.07v-41.91h36.42c1.28,0,3.9-3.74,4.16-4.38Z"/>
  <path d="M361.78,144.22l-20.73-21.75c-28.78-25.25-65.55-39.16-103.54-39.16-14.53,0-29.03,2.03-43.09,6.04-2.02.58-12.04,3.82-18.81,6.61l-22.31-24.14c1.63-.83,3.33-1.72,5.01-2.61,4.04-2.13,7.86-4.14,10.53-5.18,5.37-2.08,12.07-4.29,17.92-5.91,3.19-.88,7.19-1.58,11.06-2.25,4.97-.86,10.11-1.76,13.67-3.07.4-.15,5.16-2.58,5.16-4.41V12.98h41.91v35.42c0,1.33,3.81,3.91,4.35,4.14,3.21,1.41,9.19,2.47,14.97,3.49,4.12.73,8.38,1.48,11.34,2.32,13.08,3.71,27.07,9.47,39.38,16.21,3.85,2.1,7.6,4.6,11.24,7.02,4.37,2.9,8.89,5.91,13.58,8.24l.63.31,68.8-66.7,29.44,28.5-90.5,92.3Z"/>
  <path d="M464.12,259.45h-72.65c2.78-16.25,2.15-34.39-1.88-53.92-.66-3.19-4.67-18.08-8.79-27.51l25.12-22.01c5.69,11.75,10.14,23.67,13.46,36.21.65,2.45,1.16,5.82,1.66,9.07.68,4.47,1.38,9.08,2.5,11.87.39.97,2.68,4.01,3.89,4.35l.13.04h36.56v41.91Z"/>
  <path d="M312.3,374.52c-4.93,4.56-19.72,7.82-26.54,8.55-.5.05-1.14.08-1.96.08s-1.76-.03-2.74-.05c-1.11-.03-2.29-.06-3.48-.06-3.37,0-11.27,0-12.06,5.57-.28,1.99.13,3.64,1.23,4.91,1.66,1.91,4.76,2.84,9.49,2.84,3.87,0,8.12-.64,10.93-1.07.69-.1,1.3-.2,1.83-.27,5.53-.75,10.73-1.91,15.47-3.45v72.23h-134.19c.71-9.49.18-20.04-.36-30.3-.56-10.78-1.14-21.93-.24-31.69l.03-.29-.13-.26c-1.84-3.55-3.75-7.12-5.78-10.88-10.5-19.56-22.4-41.72-24.02-63.6-1.22-16.49-1.92-56.3,1.08-73.58.93-5.37,7.58-12.61,12.54-13.7h72.18c-1.31,19.84-13.08,33.57-31.65,36.83-.71.12-1.62.14-2.42.14-.36,0-1.94-.02-2.35-.02-2.49,0-7.12,0-8.83,3.51-.92,1.9-1.04,3.61-.35,5.08,1.53,3.25,6.55,4.48,10.98,5.55,1.67.41,3.25.79,4.36,1.23,23.96,9.45,32.37,35.23,35.2,55.2.16,1.1.26,3.21.39,5.66.53,10.45,1.07,15.3,2.85,16.45,1.02.66,2.39,1.02,3.87,1.02s2.84-.36,3.87-1.02c2.46-1.59,2.44-8.92,2.14-19.11-.08-2.68-.15-4.99-.06-6.22,1.42-20.63,13.2-36.93,30.73-42.54,1.54-.49,3.38-.74,5.15-.98,4.44-.6,9.47-1.29,11.03-6.13l.03-.1v-.1c.22-1.99-.22-3.6-1.27-4.76-1.27-1.4-3.4-2.11-6.33-2.11-8.45,0-22.08,5.88-25.83,7.91-10.12,5.48-16.71,13.35-22.2,21.22-5.23-12.94-14.58-24.13-26.01-31.17,16.45-7.54,28-24.62,29.61-44.09l.12-1.42c.61-6.82,1.08-12.21-8.34-13.05-8.46-.76-20.77-1.17-34.65-1.17s-28.02.44-37.45,1.18c-3.35.26-7.46,1.08-10.24,2.03-2.14.73-3.72,1.76-5.26,2.76-.94.61-1.85,1.2-2.85,1.7v-62.84c0-3.91,5.57-8.53,9.88-9.25,1.62-.27,4.96-.73,9.02-.73,6.34,0,17.12,1.18,18.04,9.08.75,6.38.3,13.97-.12,21.3-.48,8.18-.97,16.64.17,23.61.74,4.51,3.75,6.52,6.41,6.52,2.84,0,5.3-2.04,6.41-5.33l.04-.11v-.12c.65-6.88.28-14.48-.07-21.83-.38-7.85-.77-15.96.08-23.05.73-6.04,4.09-8.81,11.61-9.57,2.75-.28,5.18-.41,7.43-.41,8.72,0,14.25,2,16.45,5.96,2.51,4.52,1.99,16.3,1.48,27.69-.39,8.76-.75,17.03.23,22.13.53,2.74,2.77,4.5,5.71,4.5,2.58,0,5.47-1.48,6-4.31v-.11c.5-6.83.21-14.16-.08-21.24-.31-7.62-.62-15.5.05-22.68.77-8.19,6.27-12,17.31-12,2.91,0,5.84.25,8.07.48,7.48.75,10.74,3.4,11.6,9.46-1.18,9.64-.5,21.38.15,32.75.77,13.28,1.56,27.01-.59,37.48-1.52,7.38-9.36,13.86-17.13,14.15-.1,0-.19,0-.29,0-1.23,0-2.49-.28-3.71-.55-1.21-.27-2.46-.54-3.67-.54-2.03,0-3.66.8-4.97,2.45-1.81,2.27-1.75,4.16-1.38,5.35.62,2,2.63,3.65,5.5,4.53,2.46.75,5.05,1.13,7.7,1.13,13.62,0,26.69-9.97,29.98-22.54,5.68,4.6,12.38,7.01,19.49,7.01,6.65,0,12.82-2.11,17.87-5.74l.91,12.82c-.83,8.27-.49,19.6-.08,32.67.96,30.92,2.15,69.4-13.01,83.42Z"/>
</svg>