<?xml version="1.0" encoding="UTF-8"?>
<svg id="Layer_1" data-name="Layer 1" xmlns="http://www.w3.org/2000/svg" viewBox="0 0 518.88 537.12">
  <path d="M226.39,413.7c-.2-3.25-.47-7.7,1.42-9.55,2.67-2.62,20.45-10.08,24.73-10.7,1.92-.28,3.89-.42,5.86-.42,10.52,0,21.47,3.96,33.48,12.11l-2.82,50.96c-2.41,24.72-12.91,47.49-29.57,64.17-3.34-.91-15.45-20.41-18.22-26.12-11.18-23.09-13.77-54.23-14.78-78.79-.02-.51-.05-1.06-.09-1.65Z"/>
  <path d="M198.06,343.98c-11.75,13.2-24.75,19.88-38.66,19.88h0c-34.62,0-67.49-42.97-73.26-80.49,42.85,5.17,83.54,27.19,111.93,60.61Z"/>
  <path d="M484.08,228.3c-33.37,0-63.38,4.05-91.75,12.38-42.5,12.48-82.54,36.09-115.78,68.29-1.63,1.58-3.14,3.46-4.74,5.45-3.29,4.1-6.69,8.34-11.57,10.42l-.14.06h-.16c-.1.02-.2.03-.29.03-3.58,0-9.04-6.07-15.27-13.4-1.77-2.08-3.3-3.88-4.28-4.81-27.21-25.99-58.43-45.79-92.81-58.84-33.26-12.63-69.66-19.04-108.2-19.04-1.51,0-3,0-4.52.03-1.06.01-2.13.02-3.2.02-2.33,0-4.66-.03-7-.05-2.32-.03-4.65-.05-6.97-.05-.94,0-1.88,0-2.81.01,1.34,24.9,7.02,72.13,29.79,116.15,21.09,40.76,51.57,66.82,88.14,75.37,5.48,1.28,10.98,1.93,16.36,1.93,22.88,0,41.54-11.48,59.58-22.58,17.02-10.47,33.09-20.36,51.69-20.36,6.62,0,13.06,1.24,19.68,3.79,14.24,5.47,25.41,12.67,36.21,19.63,16.52,10.65,30.79,19.84,51.47,19.84h0c8.51,0,17.53-1.56,27.56-4.76,34.55-11.04,61.98-36.93,81.54-76.96,15.41-31.53,25.22-71.3,27.67-112.08-6.9-.31-13.71-.47-20.23-.47ZM199.45,362.29c-12.6,10.77-26.03,16.24-39.93,16.24-19.33,0-39.44-10.92-56.62-30.75-15.12-17.45-26.73-40.52-31.06-61.72-.12-.61-.27-1.25-.42-1.92-.9-3.95-2.01-8.86.12-12.12,1.03-1.58,2.71-2.6,5-3.05.54-.1,1.25-.16,2.18-.16,6.17,0,19.81,2.32,21.34,2.59,35.5,6.12,88.04,33.61,109.69,64.77,7.55,10.86-3.62,20.42-10.3,26.12ZM430.08,329.55c-8.17,13.73-18.81,25.52-30.76,34.09-13.02,9.33-26.98,14.27-40.39,14.27s-27.33-5.26-39.46-15.63c-6.68-5.71-17.85-15.26-10.3-26.12,11.66-16.78,32.19-33.22,57.82-46.3,24.62-12.56,50.6-20.15,71.28-20.82.41-.01.81-.02,1.2-.02,4.5,0,9.11.96,9.2,8.07.15,12.21-11.97,41.33-18.59,52.46Z"/>
  <path d="M359.54,363.87c-13.91,0-26.92-6.69-38.68-19.89,28.38-33.4,69.06-55.43,111.92-60.61-2.84,18.32-12.21,38.32-25.23,53.74-14.55,17.25-31.6,26.75-48.01,26.75h0Z"/>
  <path d="M359.72,164.31c-3.23-11.8-13.99-23.71-30.76-23.71-1.74,0-3.53.13-5.32.39-4.77.69-8.68,3.03-12.47,5.29-3.14,1.88-6.11,3.65-9.54,4.57-4.08,1.09-7.87,1.25-11.37,1.25h0c-1.21,0-2.43-.02-3.67-.04-.39,0-.79-.01-1.19-.02.13-6.12.4-12.33.66-18.36.53-12.07,1.07-24.54.5-36.86-.18-3.92-1.04-9.98-1.94-16.39-1.61-11.36-3.43-24.24-2.13-29.2.95-3.63,2.36-6.25,3.73-8.77,2.82-5.21,5.26-9.71,2.41-20.48C284.99,8.22,274.63,0,260.92,0,250.58,0,240.53,4.92,234.7,12.85c-3.87,5.27-7.66,14.2-3.71,26.87.66,2.13,1.83,4.22,2.96,6.25,1.07,1.91,2.07,3.72,2.47,5.25,1.22,4.66-.57,17.6-2.15,29.03-.9,6.54-1.75,12.71-1.92,16.57-.55,12.44,0,25.04.51,37.22.26,5.95.52,12.09.65,18.14-1.7.27-3.38.41-5.02.41-7.63,0-13.73-3-19.62-5.9-5.95-2.93-12.09-5.96-19.8-5.96-2.8,0-5.61.39-8.57,1.18-11.98,3.21-20.64,13.7-22.05,26.73-1.43,13.17,4.67,24.97,15.91,30.8,5.5,2.85,10.47,4.24,15.19,4.24,6.83,0,12.14-2.84,17.77-5.85,5.23-2.8,10.64-5.69,17.68-6.41.83-.09,1.75-.13,2.82-.13s2.27.05,3.39.09c1.14.04,2.31.09,3.47.09.41,0,.79,0,1.16-.02.15,4.97,2.29,8.12,4.88,9.32-1.9,13.12-5.97,31.44-14.47,40.24-18.13,18.76-4.2,27.66-4.2,27.66,0,0,37.39,19.29,37.39,30.7,0-16.01,24.9-22.4,34.74-30.7s-.07-21.24-6.62-27.66c-4.92-4.82-8.03-13.73-8.91-38.75,2.39-2.12,4.28-6.1,4.44-11,1.69-.26,3.38-.39,5.04-.39,8.38,0,15.26,3.3,21.92,6.5,6.49,3.12,12.62,6.06,19.87,6.06,5.27,0,10.53-1.6,16.08-4.88,12.07-7.14,17.46-20.58,13.72-34.24Z"/>
</svg>