<?xml version="1.0" encoding="UTF-8"?>
<svg id="Layer_1" data-name="Layer 1" xmlns="http://www.w3.org/2000/svg" viewBox="0 0 334.46 529.1">
  <path d="M281.61,381.19c-3.82,5.1-11.95,21.55-15.77,24.1-4.57,3.04-12.51,2.32-15.3-2.61-2.58-4.55-.47-32.15-.95-39.98-1.27-20.64-7.72-43.76-23.09-58.21,1.08,7.93,6.11,14.49,3.37,22.81-2.15,6.55-9.94,8.89-16.27,7.41-6.56-1.53-23.22-21.62-27.95-27.64-20.05-25.53-38.37-57.08-29.4-90.75-2.1,1-3.27,3.76-4.19,5.76-8.81,19.17-2.63,51.48,1.77,71.72,5.33,24.5,19.62,56.87,22.05,79.73,1.17,10.98-1.02,18.05-13.62,15.73-4.79-.88-18.72-12.18-22.79-16.01-18.87-17.74-35.22-48.58-37.72-74.54-.85-8.84.63-18.84,0-27.82l-4.23,7.83c-7.27,21.75-2.33,59.06,2.47,81.58,1.73,8.14,7.3,22.11,7.84,28.97.55,6.94-5.24,15.4-12.08,16.78-7.96,1.6-25.64-6.49-33.49-10.07-5.39-2.46-10.51-5.47-15.54-8.58-.47,14.81,9.05,31.32,17.91,42.94,51.12,67.04,143.75,75.13,200.13,9.55,8.02-9.32,24.62-36.96,24.62-48.82v-17.32c-2.94.37-5.94,4.99-7.77,7.44Z"/>
  <path d="M303.19,290.13L166.76,16.89,28.21,295.38c-39.15,85.16,9.53,192.94,101.4,214.76,130.28,30.93,228.8-102.27,173.58-220.01ZM125.33,492.38c-39.86-14.44-102.8-66.81-94.37-114.48,3.34-18.86,15.31-6.53,23.98-1.87,6.6,3.55,14.1,7.62,20.96,10.5,2.87,1.21,15.47,6.83,17.47,5.06-5.33-17.64-10.07-35.84-12.42-54.2-2.8-21.89-5.5-69.64,16.27-83.12,10.4-6.44,20.66,1.22,20.32,12.99-.27,9.32-1.86,18.58-1.09,28.28,2.33,29.16,19.56,58.07,42.95,75.07-6.49-26.37-15.92-52.08-21.49-78.71-5.72-27.32-13.28-72.26,12.16-91.76,7.63-5.85,29.91-15.08,30.4.95.22,7.41-3.1,6.7-5.79,11.09-21.36,34.96,14.76,81.1,39.23,104.9-.7-8.11-10.87-26.11-10.44-33,.25-4.01,4.37-6.62,7.98-6.86,3.96-.26,16.18,9.48,19.74,12.6,26.91,23.56,33.44,56.72,33.06,91.29,6.68-8.94,22.29-31.83,35.02-18.81,10.32,10.56,2.79,41.71-2.35,54.16-26.23,63.49-106.69,99.44-171.58,75.93Z"/>
</svg>