<?xml version="1.0" encoding="UTF-8"?>
<svg id="Layer_1" data-name="Layer 1" xmlns="http://www.w3.org/2000/svg" viewBox="0 0 499.28 499.95">
  <path d="M251.67,464.18c-10.26,0-20.35.35-25.7.89-1.52.15-6.31,1.09-8.28,2.77-2.94,2.49-4.08,6.41-2.98,10.22,1.22,4.22,4.78,7.23,9.28,7.87,5.26.74,18.04,1,27.39,1h0c11.75,0,21.07-.36,24.92-.97,5.31-.84,8.98-5.12,8.93-10.41-.04-4.14-2.68-9.34-10-10.37-4.51-.63-13.1-1-23.57-1Z"/>
  <polygon points="230.6 452.1 268.58 452.1 268.58 415.17 231.72 415.17 230.6 452.1"/>
  <path d="M224.43,401.75c6.83,0,14,.29,20.92.56,6.99.28,14.21.57,21.18.57,5.92,0,11.07-.21,15.74-.64,11.83-1.08,11.57-8.86,11.32-16.37-.03-.87-.06-1.76-.07-2.67l-.04-1.96h-85.25l-.6.78c-2.36,3.07-2.82,7.99-1.18,12.53,1.44,3.95,4.18,6.65,7.52,7.4l.27.06h.27c3.06-.17,6.3-.25,9.91-.25Z"/>
  <polygon points="180.78 341.99 180.78 368.27 318.45 368.27 318.45 339.32 183.45 339.32 180.78 341.99"/>
  <path d="M250.27,167.64c.17,0,.34,0,.5.03,2.29.3,5.83,3.9,5.83,5.48v153.2h24.84l.1-1.89c.61-11.44,7.76-20.38,14.69-29.03.61-.76,2.22-2.79,2.22-2.79l8.08-151.48s-63.41-18.42-111.14-18.42h-2.75s.12,2.11.12,2.11c.07,1.29.03,2.61-.02,4.01-.05,1.48-.11,3-.01,4.54,2.99,47.76,6.99,98.96,12.6,161.11l.07.78.58.52c9.01,8.19,14.31,17.88,15.74,28.8l.23,1.74h21.71v-155.2c0-1.34,3.71-3.52,6.63-3.52Z"/>
  <path d="M327.95,261.34c31.91,0,73.04,2.71,108.17,23.81l5.44,3.26-2.58-5.79c-3.53-7.93-9.77-15.35-19.08-22.67-25.58-20.13-59.31-24.36-83.11-24.36-6.71,0-13.6.33-20.47.99l-1.72.17-1.25,24.79,2.15-.05c4.39-.1,8.46-.15,12.45-.15Z"/>
  <path d="M152.28,76.05c-62.39,0-134.59,9.66-139.13,84.96-1.93,31.97,6.45,58.12,24.91,77.72,23.55,25.01,63.97,38.79,113.81,38.79,1.52,0,3.03-.01,4.55-.04h.16s32.65-3.11,32.65-3.11l-.51-22.09-2.14.21c-11.8,1.13-22.29,1.68-32.06,1.68-51.55,0-83.62-15.52-98.06-47.46-8.31-18.37-9.19-35.04-2.62-49.53,7.93-17.49,27.09-31.62,53.95-39.79,19.34-5.88,41.93-8.86,67.16-8.86,37.07,0,80.97,6.46,130.46,19.21,6.36,1.64,12.99,3.49,20,5.46,26.36,7.38,56.24,15.75,84.27,15.75,17.05,0,31.45-3.04,44.01-9.28,21.95-10.91,39.51-41.83,30.59-79.8-5.34-22.74-22.1-47.05-53.12-47.05-1.81,0-3.67.09-5.54.25-24.89,2.26-37.76,17.03-50.2,31.31-8.79,10.09-17.09,19.61-29.29,24.62-16.81,6.9-42.14,10.26-77.42,10.26-17.38,0-35.07-.77-50.67-1.46-8.89-.39-17.28-.76-24.79-.95-2.75-.07-5.56-.15-8.43-.23-10.45-.29-21.26-.6-32.55-.6Z"/>
  <path d="M245.82,64.77c1.76,0,3.52.02,5.28.06.97.02,1.97.25,3.03.49,1.23.28,2.49.57,3.89.59h.17c1.75.03,6.4.11,11.54.11h0c18.92,0,19.64-.95,20.39-1.96l.96-1.28-38.91-45.82-43.45,45.72,3.64.66c7.3,1.33,14.7,1.51,20.98,1.51,2.09,0,4.17-.02,6.26-.04,2.08-.02,4.15-.04,6.23-.04Z"/>
</svg>