<?xml version="1.0" encoding="UTF-8"?>
<svg id="Layer_1" data-name="Layer 1" xmlns="http://www.w3.org/2000/svg" viewBox="0 0 435.79 500.29">
  <path d="M206.85,497.92l-43.03-173.62c1.44-2.63,4.2-4.68,7.27-4.74,23.07,3.86,46.47,5.91,69.91,5.06,7.12-.26,21.56-3.59,27.68-1.83,2.61.75,4.54,4.35,3.5,7.01l-51.63,164.98c-2.49,5.72-8.95,7.34-13.7,3.13Z"/>
  <path d="M256.41,336.56c-12.75,1.45-25.61,2.12-38.45,2.03l-39.36-4.03,33.93,139.71,43.89-137.71Z"/>
  <path d="M226.2,1.51l48.06,94.99c.33,10.84-19.5,4.09-26.33,3.53-19.97-1.64-39.84-2.11-59.85-.99-7.69.43-22.97,6.17-21-7.02,16.68-27.93,30.41-58.8,47.28-86.47,3.23-5.3,5.14-7.14,11.85-4.03Z"/>
  <path d="M256.4,88.05l-34.41-67.86-36.42,65.86c23.58-1.61,47.52-1.4,70.82,2Z"/>
  <path d="M93.53,297.79c2.87-.51,30.65,10.29,36.41,12.08,6.65,2.07,18.36,3.64,23.73,6.2,5.08,2.42,5.18,7.73,1.5,11.52l-81.3,81.41c-6.27,1.94-9.27-4.32-7.77-9.81,9.01-30.1,12.62-64.08,21.98-93.79.99-3.13,1.56-6.91,5.44-7.61Z"/>
  <polygon points="138.68 325.58 99.73 314.02 84.82 380.46 138.68 325.58"/>
  <path d="M344.95,304.87c.87.93,1.6,4.08,1.98,5.51,7.73,29.42,9.41,62.93,17.17,92.67-.18,6.68-6.67,8.43-11.42,4.38-20.33-24.12-43.01-46.23-63.85-69.87-3.79-4.3-14.35-14.15-5.05-18.05,6.48-2.72,18.61-4.3,26.28-6.65,9.74-2.99,19.38-6.49,28.92-10.07,1.48-.13,5.09,1.12,5.98,2.07Z"/>
  <polygon points="347.2 381.46 335.29 319 299.32 328.58 347.2 381.46"/>
  <path d="M354.89,48.33c4.93-1.5,7.32.18,9.02,4.54,5.06,13.01,16.41,57.43,17.13,70.76.4,7.36-2.83,9.38-9.71,7.64-9.12-2.31-21.97-8.92-31.59-12.3-9.1-3.2-21.34-5.4-29.72-9.19-5.18-2.34-6.15-4.93-3.77-10.31l48.64-51.13Z"/>
  <polygon points="367.16 114.98 354.69 67.09 324.28 99.52 367.16 114.98"/>
  <path d="M86.5,50.32c1.61-.49,3.96-.46,5.58.02l50.65,48.13c2.48,4.03.61,7.87-3.33,9.75-7.09,3.39-20.51,5.89-28.89,9.02-5.32,1.99-31.79,14.85-34.1,14.71-7.59-.45-5.95-8.28-5.41-13.32,1.83-17.15,6.8-44.86,11.49-61.35.68-2.38,1.25-6.11,4.02-6.96Z"/>
  <polygon points="84.81 113.99 124.69 98.53 94.28 69.11 84.81 113.99"/>
  <path d="M37.66,270.84c1.38-.24,2.01-.02,3.26.28,1.44.35,25.01,12.65,26.29,13.68,8.1,6.47-2.29,12.16-7.03,15.65-8.45,6.21-30.41,22.27-38.88,25.97-6.61,2.89-11.61-.58-9.87-7.84,8.23-12.62,13.11-32.43,21.65-44.24,1.13-1.56,2.6-3.14,4.58-3.49Z"/>
  <path d="M49.89,292.62c.91-1.34-7.67-5.44-8.96-5.97l-5.99,14.97,14.96-9Z"/>
  <path d="M365.45,299.35c-2.51-3.04-1.69-7.23,1.2-9.71,5.89-5.05,18.19-8.62,24.42-14.52,3.87-1.21,6.02-.22,8.23,2.84,8.29,11.47,12.93,31.38,21.28,43.61,2.06,6.3-3.33,10.9-9.26,8.24l-45.87-30.45Z"/>
  <path d="M391.09,290.64c-1.03-.75-8.47,4.23-7.97,4.97l13.96,9-5.99-13.97Z"/>
  <path d="M433.04,207.27c-27.61-28.93-78.71-60.71-116.25-74.33-103.62-37.6-215.35-4.74-299.73,60.5C11.15,198.01,4.22,202.93,0,208.81v2.99c50.99,50.46,117.96,89.53,191.02,94.85,81.68,5.95,172.55-29.43,234.48-81.91,5.83-4.94,14.89-9.78,7.55-17.47ZM316.78,224.78c-18.26,77.89-173.71,79.31-195.57,2.99-15.61-54.51,46.34-86.85,92.09-88.54,46.82-1.73,116.95,28.07,103.48,85.55Z"/>
  <path d="M237.46,250.71c43.4-12.23,43.78-65.54.51-78.84,5.32,25.81,6.71,53.24-.51,78.84Z"/>
  <path d="M199.54,250.72c-6.72-25.81-4.32-52.87,0-78.84-43.31,13.3-43.53,66.13,0,78.84Z"/>
</svg>