<?xml version="1.0" encoding="UTF-8"?>
<svg id="Layer_1" data-name="Layer 1" xmlns="http://www.w3.org/2000/svg" viewBox="0 0 477.34 444.79">
  <path d="M19.18,343.75l1.1,1.02c41.69,38.52,95.36,66.42,151.14,78.57,22.48,4.89,46.16,7.38,70.39,7.38,33.81,0,68.78-4.77,103.95-14.17,41.48-11.09,78.11-27.49,108.87-48.74l1.44-1-106.5-49.21-.28.03c-24.75,2.84-48.66,4.28-71.06,4.28-56.63,0-107.35-9.24-150.76-27.47l-.4-.17-107.87,49.48Z"/>
  <path d="M135.44,282.13l.82.34c40.78,16.92,87.04,25.14,141.42,25.14h0c20.43,0,41.59-1.15,64.7-3.51l.9-.09v-29.95l-1.1.11c-20.52,2.06-40.64,3.1-59.82,3.1-39.83,0-76.73-4.49-109.69-13.33-4.15-1.12-8.33-2.51-12.38-3.86-5.34-1.79-10.86-3.63-16.39-4.85l-.92-.2-7.55,27.11Z"/>
  <path d="M348.52,14.81c-.56,0-1.13.07-1.61.13-3.69.49-11.5,3.46-17.21,5.62-1.53.58-2.9,1.1-3.97,1.49-52.46,19.02-100.97,49.03-136.6,84.52l-.18.18-40.07,134.12.84.34c13.56,5.54,28.92,10.09,45.63,13.52,23.61,4.85,46.71,6.65,74.47,8.51h30.09s43.37-3.1,43.37-3.1v-83.56l-39.94-57.01c-.26-2.18.33-4.21,1.66-5.74,1.33-1.53,3.26-2.41,5.3-2.41,1.54,0,3.08.51,4.45,1.47,2.79,1.95,6.62,8.14,10.01,13.6,2.67,4.32,5.2,8.39,7.31,10.68l.9.98,44.04-72.35c.71-.66,2.33-1.9,2.83-2.13h48.78l-77.11-47.98c-.87-.58-1.83-.86-2.99-.86Z"/>
</svg>