<?xml version="1.0" encoding="UTF-8"?>
<svg id="Layer_1" xmlns="http://www.w3.org/2000/svg" version="1.1" viewBox="0 0 595.3 570.7">
  <!-- Generator: Adobe Illustrator 29.6.1, SVG Export Plug-In . SVG Version: 2.1.1 Build 9)  -->
  <path d="M427.9,541.1h-6c-6.7-2.7-6.9-18.9-2-22.4,13.1-9.4,18.2,17.2,7.9,22.4Z"/>
  <path d="M442.6,497.4c5.7-1.3,17.2-1.4,18.2,6.4,1.3,10.1-9.9,10.5-17.3,9.3s-8.7-13.9-.8-15.7Z"/>
  <path d="M394.8,497.4c5.7-1.3,17.2-1.4,18.2,6.4,1.3,10.1-9.9,10.5-17.3,9.3s-8.7-13.9-.8-15.7Z"/>
  <path d="M422.7,469.4c13-2.8,12.6,18.3,7.2,22.2-13.8,9.9-18.2-19.8-7.2-22.2Z"/>
  <path d="M173.4,541.1h-6c-6.7-2.7-6.9-18.9-2-22.4,13.1-9.4,18.2,17.2,7.9,22.4Z"/>
  <path d="M188.1,497.4c5.7-1.3,17.2-1.4,18.2,6.4s-9.9,10.5-17.3,9.3c-8.6-1.3-8.7-13.9-.8-15.7Z"/>
  <path d="M140.3,497.4c5.7-1.3,17.2-1.4,18.2,6.4s-9.9,10.5-17.3,9.3c-8.6-1.3-8.7-13.9-.8-15.7Z"/>
  <path d="M168.2,469.4c13-2.8,12.6,18.3,7.2,22.2-13.8,9.9-18.2-19.8-7.2-22.2Z"/>
  <path d="M394.8,58.5c5.7-1.3,17.2-1.4,18.2,6.4,1.3,10.1-9.9,10.5-17.3,9.3s-8.7-13.9-.8-15.7Z"/>
  <path d="M422.7,78.5c13-2.8,12.6,18.3,7.2,22.2-13.8,9.9-18.2-19.8-7.2-22.2Z"/>
  <path d="M442.6,58.5c5.7-1.3,17.2-1.4,18.2,6.4,1.3,10.1-9.9,10.5-17.3,9.3s-8.7-13.9-.8-15.7Z"/>
  <path d="M422.7,30.6c13-2.8,12.6,18.3,7.2,22.2-13.8,9.9-18.2-19.8-7.2-22.2Z"/>
  <path d="M168.2,30.6c13-2.8,12.6,18.3,7.2,22.2-13.8,9.9-18.2-19.8-7.2-22.2Z"/>
  <path d="M168.2,78.5c13-2.8,12.6,18.3,7.2,22.2-13.8,9.9-18.2-19.8-7.2-22.2Z"/>
  <path d="M140.3,58.5c5.7-1.3,17.2-1.4,18.2,6.4,1.3,10.1-9.9,10.5-17.3,9.3s-8.7-13.9-.8-15.7Z"/>
  <path d="M188.1,58.5c5.7-1.3,17.2-1.4,18.2,6.4,1.3,10.1-9.9,10.5-17.3,9.3s-8.7-13.9-.8-15.7Z"/>
  <path d="M305.7,541.1c-3.7.4-12.2.4-15.9,0-24.9-3-45.8-26.6-47.8-51.3-1.2-15.5-1.7-57.3,3-70.9,16.6-48.5,86.2-50,104.6-2.1,5.6,14.6,5.1,56.4,3.8,73-1.9,24.7-22.8,48.3-47.8,51.3ZM293.5,397.7c-20,2.2-34,18.2-35.6,38.1-1.2,14.8-1.6,53.4,3.8,66,13.4,30.9,59.4,30.6,72.2-.7s4.7-50.8,3.5-65.3c-1.8-23-20.7-40.6-44-38.1Z"/>
  <path d="M286.5,489.4c5.6-1.2,7.2,2.6,10.8,2.8s13.7-8,16.9,2c4.6,14.6-23.1,18.4-31.4,8.5s-2.1-12,3.7-13.3Z"/>
  <path d="M270.6,450.5c5.3-1.6,17.5-1.5,19,5.5,2.2,10.1-8.9,11.2-16.1,10.2-10.3-1.5-9.1-13.8-2.9-15.7Z"/>
  <path d="M310.3,450.5c5.3-1.6,17.5-1.5,19,5.5,2.2,10.1-8.9,11.2-16.1,10.2-10.3-1.5-9.1-13.8-2.9-15.7Z"/>
  <path d="M480.6,341.6c1.6,13,1.6,50.8,0,63.8-6.8,56.7-91,66.2-108.9,9-4.2-13.6-3.6-53-2.5-68.4,4.8-68.8,103.8-67.8,111.4-4.4ZM420.8,309.9c-20,2.2-34,18.2-35.6,38.1-1.2,14.8-1.6,53.4,3.8,66,13.4,30.9,59.4,30.6,72.2-.7,5.1-12.5,4.7-50.8,3.5-65.3-1.8-23-20.7-40.6-44-38.1Z"/>
  <path d="M428.6,398.7c8.3-.1,11.3,10.8,3,15.8s-12.2,6-16.6.3c-6.5-8.2,6.6-16,13.6-16.2Z"/>
  <path d="M437.6,362.7c5.3-1.6,17.5-1.5,19,5.5,2.2,10.1-8.9,11.2-16.1,10.2-10.3-1.5-9.1-13.8-2.9-15.7Z"/>
  <path d="M397.8,362.7c5.3-1.6,17.5-1.5,19,5.5,2.2,10.1-8.9,11.2-16.1,10.2-10.3-1.5-9.1-13.8-2.9-15.7Z"/>
  <path d="M480.6,166c1.6,13,1.6,50.8,0,63.8-7.6,63.3-106.6,64.3-111.4-4.4-1.1-15.4-1.7-54.8,2.5-68.4,17.8-57.2,102.1-47.7,108.9,9ZM420.8,134.4c-20,2.2-34,18.2-35.6,38.1-1.2,14.8-1.6,53.4,3.8,66,13.4,30.9,59.4,30.6,72.2-.7,5.1-12.5,4.7-50.8,3.5-65.3-1.8-23-20.7-40.6-44-38.1Z"/>
  <path d="M437.6,187.2c5.3-1.6,17.5-1.5,19,5.5,2.2,10.1-8.9,11.2-16.1,10.2-10.3-1.5-9.1-13.8-2.9-15.7Z"/>
  <path d="M397.8,187.2c5.3-1.6,17.5-1.5,19,5.5,2.2,10.1-8.9,11.2-16.1,10.2-10.3-1.5-9.1-13.8-2.9-15.7Z"/>
  <path d="M424.6,224.2c7.5-.4,12.3,10.5,4.2,15.1-11.6,6.6-17.3-14.4-4.2-15.1Z"/>
  <path d="M163.3,118.4c30.9-3.5,60,18.6,62.8,50.1,1.5,16.4,1.7,59.6-3.8,74-18.4,47.9-88,46.4-104.6-2.1-4.6-13.6-4.2-55.3-3-70.9,2-25.6,22.9-48.1,48.5-51.1ZM166.3,134.4c-20,2.2-34,18.2-35.6,38.1-1.2,14.8-1.6,53.4,3.8,66,13.4,30.9,59.4,30.6,72.2-.7,5.1-12.5,4.7-50.8,3.5-65.3-1.8-23-20.7-40.6-44-38.1Z"/>
  <path d="M174.1,223.2c8.3-.1,11.3,10.8,3,15.8s-12.2,6-16.6.3c-6.5-8.2,6.6-16,13.6-16.2Z"/>
  <path d="M143.3,187.2c5.3-1.6,17.5-1.5,19,5.5,2.2,10.1-8.9,11.2-16.1,10.2-10.3-1.5-9.1-13.8-2.9-15.7Z"/>
  <path d="M183.1,187.2c5.3-1.6,17.5-1.5,19,5.5,2.2,10.1-8.9,11.2-16.1,10.2-10.3-1.5-9.1-13.8-2.9-15.7Z"/>
  <path d="M290.5,30.7c30.9-3.5,60,18.6,62.8,50.1,1.5,16.4,1.7,59.6-3.8,74-18.4,47.9-88,46.4-104.6-2.1-4.6-13.6-4.2-55.3-3-70.9,2-25.6,22.9-48.1,48.5-51.1ZM293.5,46.6c-20,2.2-34,18.2-35.6,38.1-1.2,14.8-1.6,53.4,3.8,66,13.4,30.9,59.4,30.6,72.2-.7s4.7-50.8,3.5-65.3c-1.8-23-20.7-40.6-44-38.1Z"/>
  <path d="M286.5,138.3c5.6-1.2,7.2,2.6,10.8,2.8s13.7-8,16.9,2c4.6,14.6-23.1,18.4-31.4,8.5s-2.1-12,3.7-13.3Z"/>
  <path d="M270.6,99.4c5.3-1.6,17.5-1.5,19,5.5,2.2,10.1-8.9,11.2-16.1,10.2-10.3-1.5-9.1-13.8-2.9-15.7Z"/>
  <path d="M310.3,99.4c5.3-1.6,17.5-1.5,19,5.5,2.2,10.1-8.9,11.2-16.1,10.2-10.3-1.5-9.1-13.8-2.9-15.7Z"/>
  <path d="M290.5,206.2c30.9-3.5,60,18.6,62.8,50.1,1.5,16.4,1.7,59.6-3.8,74-18.4,47.9-88,46.4-104.6-2.1-4.6-13.6-4.2-55.3-3-70.9,2-25.6,22.9-48.1,48.5-51.1ZM293.5,222.2c-20,2.2-34,18.2-35.6,38.1-1.2,14.8-1.6,53.4,3.8,66,13.4,30.9,59.4,30.6,72.2-.7s4.7-50.8,3.5-65.3c-1.8-23-20.7-40.6-44-38.1Z"/>
  <path d="M310.3,275c5.3-1.6,17.5-1.5,19,5.5,2.2,10.1-8.9,11.2-16.1,10.2-10.3-1.5-9.1-13.8-2.9-15.7Z"/>
  <path d="M270.6,275c5.3-1.6,17.5-1.5,19,5.5,2.2,10.1-8.9,11.2-16.1,10.2-10.3-1.5-9.1-13.8-2.9-15.7Z"/>
  <path d="M292.5,312.9c7.8-1.4,20.2-.2,16.7,10.8s-11.8,5.7-16.9,4.9c-8.4-1.3-9.3-13.9.2-15.7Z"/>
  <path d="M168.3,291c29.8-1.1,55.6,22.3,57.9,52.1,1.4,19.3,2.2,61.1-6.1,77.7-22.7,45.2-91.4,37.4-103.5-11.5-3.2-12.9-3.2-62.5-.3-75.6,5.3-23.4,28.2-41.7,52-42.6ZM163.3,307.9c-17.8,2.4-31.2,19.7-32.6,37.1-1.1,14.4-1.6,55,3.8,67,16.5,36.3,72.5,26.7,75.8-15.1,1.1-14.4,1.6-55-3.8-67s-25.6-24.4-43.2-22Z"/>
  <path d="M200,361.8c3.9,3.6,2.5,12-2.4,13.4s-16.8,1.4-18.7-4.7c-3.9-12.3,15.6-13.8,21.1-8.7Z"/>
  <path d="M160.2,361.8c3.9,3.6,2.5,12-2.4,13.4s-16.8,1.4-18.7-4.7c-3.9-12.3,15.6-13.8,21.1-8.7Z"/>
  <path d="M168.2,397.6c11.7-2.5,13.7,13.6,4.5,15.6-11.7,2.5-13.7-13.6-4.5-15.6Z"/>
</svg>